# MagicaVoxel @ Ephtracy

# group
o 

# material
mtllib medium_conveyer.mtl
usemtl palette

# normals
vn -1 0 0
vn 1 0 0
vn 0 0 1
vn 0 0 -1
vn 0 -1 0
vn 0 1 0

# texcoords
vt 0.0605469 0.5
vt 0.119141 0.5
vt 0.123047 0.5

# verts
v -1.6 0 1.6
v -1.6 0 -1.6
v -1.6 3.2 1.6
v -1.6 3.2 -1.6
v -0.4 3 1.1
v -0.4 3 0.6
v -0.4 3 -0.2
v -0.4 3 -0.7
v -0.4 3.1 1.1
v -0.4 3.1 0.6
v -0.4 3.1 -0.2
v -0.4 3.1 -0.7
v -0.3 3 0.6
v -0.3 3 0.5
v -0.3 3 -0.7
v -0.3 3 -0.8
v -0.3 3.1 0.6
v -0.3 3.1 0.5
v -0.3 3.1 -0.7
v -0.3 3.1 -0.8
v -0.2 3 0.5
v -0.2 3 0.4
v -0.2 3 -0.8
v -0.2 3 -0.9
v -0.2 3.1 0.5
v -0.2 3.1 0.4
v -0.2 3.1 -0.8
v -0.2 3.1 -0.9
v -0.1 3 0.4
v -0.1 3 0.3
v -0.1 3 -0.9
v -0.1 3 -1
v -0.1 3.1 0.4
v -0.1 3.1 0.3
v -0.1 3.1 -0.9
v -0.1 3.1 -1
v 0.1 3 0.7
v 0.1 3 0.5
v 0.1 3 -0.6
v 0.1 3 -0.8
v 0.1 3.1 0.7
v 0.1 3.1 0.5
v 0.1 3.1 -0.6
v 0.1 3.1 -0.8
v 0.2 3 0.9
v 0.2 3 0.7
v 0.2 3 -0.4
v 0.2 3 -0.6
v 0.2 3.1 0.9
v 0.2 3.1 0.7
v 0.2 3.1 -0.4
v 0.2 3.1 -0.6
v 0.3 3 1.1
v 0.3 3 0.9
v 0.3 3 -0.2
v 0.3 3 -0.4
v 0.3 3.1 1.1
v 0.3 3.1 0.9
v 0.3 3.1 -0.2
v 0.3 3.1 -0.4
v 1.2 0 1.6
v 1.2 0 -1.6
v 1.2 2.8 1.6
v 1.2 2.8 -1.6
v 1.2 3 1.6
v 1.2 3 -1.6
v 1.2 3.2 1.6
v 1.2 3.2 -1.6
v -1.2 0 1.6
v -1.2 0 -1.6
v -1.2 2.8 1.6
v -1.2 2.8 -1.6
v -1.2 3 1.6
v -1.2 3 -1.6
v -1.2 3.2 1.6
v -1.2 3.2 -1.6
v -0.3 3 1.1
v -0.3 3 0.9
v -0.3 3 -0.2
v -0.3 3 -0.4
v -0.3 3.1 1.1
v -0.3 3.1 0.9
v -0.3 3.1 -0.2
v -0.3 3.1 -0.4
v -0.2 3 0.9
v -0.2 3 0.7
v -0.2 3 -0.4
v -0.2 3 -0.6
v -0.2 3.1 0.9
v -0.2 3.1 0.7
v -0.2 3.1 -0.4
v -0.2 3.1 -0.6
v -0.1 3 0.7
v -0.1 3 0.5
v -0.1 3 -0.6
v -0.1 3 -0.8
v -0.1 3.1 0.7
v -0.1 3.1 0.5
v -0.1 3.1 -0.6
v -0.1 3.1 -0.8
v 0.1 3 0.4
v 0.1 3 0.3
v 0.1 3 -0.9
v 0.1 3 -1
v 0.1 3.1 0.4
v 0.1 3.1 0.3
v 0.1 3.1 -0.9
v 0.1 3.1 -1
v 0.2 3 0.5
v 0.2 3 0.4
v 0.2 3 -0.8
v 0.2 3 -0.9
v 0.2 3.1 0.5
v 0.2 3.1 0.4
v 0.2 3.1 -0.8
v 0.2 3.1 -0.9
v 0.3 3 0.6
v 0.3 3 0.5
v 0.3 3 -0.7
v 0.3 3 -0.8
v 0.3 3.1 0.6
v 0.3 3.1 0.5
v 0.3 3.1 -0.7
v 0.3 3.1 -0.8
v 0.4 3 1.1
v 0.4 3 0.6
v 0.4 3 -0.2
v 0.4 3 -0.7
v 0.4 3.1 1.1
v 0.4 3.1 0.6
v 0.4 3.1 -0.2
v 0.4 3.1 -0.7
v 1.6 0 1.6
v 1.6 0 -1.6
v 1.6 3.2 1.6
v 1.6 3.2 -1.6
v -1.6 0 1.6
v -1.6 3.2 1.6
v -1.2 0 1.6
v -1.2 2.8 1.6
v -1.2 2.9 1.6
v -1.2 3 1.6
v -1.2 3.2 1.6
v 1.2 0 1.6
v 1.2 2.8 1.6
v 1.2 2.9 1.6
v 1.2 3 1.6
v 1.2 3.2 1.6
v 1.6 0 1.6
v 1.6 3.2 1.6
v -0.4 3 1.1
v -0.4 3.1 1.1
v -0.3 3 1.1
v -0.3 3.1 1.1
v 0.3 3 1.1
v 0.3 3.1 1.1
v 0.4 3 1.1
v 0.4 3.1 1.1
v -0.3 3 0.9
v -0.3 3.1 0.9
v -0.2 3 0.9
v -0.2 3.1 0.9
v 0.2 3 0.9
v 0.2 3.1 0.9
v 0.3 3 0.9
v 0.3 3.1 0.9
v -0.2 3 0.7
v -0.2 3.1 0.7
v -0.1 3 0.7
v -0.1 3.1 0.7
v 0.1 3 0.7
v 0.1 3.1 0.7
v 0.2 3 0.7
v 0.2 3.1 0.7
v -0.1 3 0.5
v -0.1 3.1 0.5
v 0.1 3 0.5
v 0.1 3.1 0.5
v -0.4 3 -0.2
v -0.4 3.1 -0.2
v -0.3 3 -0.2
v -0.3 3.1 -0.2
v 0.3 3 -0.2
v 0.3 3.1 -0.2
v 0.4 3 -0.2
v 0.4 3.1 -0.2
v -0.3 3 -0.4
v -0.3 3.1 -0.4
v -0.2 3 -0.4
v -0.2 3.1 -0.4
v 0.2 3 -0.4
v 0.2 3.1 -0.4
v 0.3 3 -0.4
v 0.3 3.1 -0.4
v -0.2 3 -0.6
v -0.2 3.1 -0.6
v -0.1 3 -0.6
v -0.1 3.1 -0.6
v 0.1 3 -0.6
v 0.1 3.1 -0.6
v 0.2 3 -0.6
v 0.2 3.1 -0.6
v -0.1 3 -0.8
v -0.1 3.1 -0.8
v 0.1 3 -0.8
v 0.1 3.1 -0.8
v -0.4 3 0.6
v -0.4 3.1 0.6
v -0.3 3 0.6
v -0.3 3.1 0.6
v 0.3 3 0.6
v 0.3 3.1 0.6
v 0.4 3 0.6
v 0.4 3.1 0.6
v -0.3 3 0.5
v -0.3 3.1 0.5
v -0.2 3 0.5
v -0.2 3.1 0.5
v 0.2 3 0.5
v 0.2 3.1 0.5
v 0.3 3 0.5
v 0.3 3.1 0.5
v -0.2 3 0.4
v -0.2 3.1 0.4
v -0.1 3 0.4
v -0.1 3.1 0.4
v 0.1 3 0.4
v 0.1 3.1 0.4
v 0.2 3 0.4
v 0.2 3.1 0.4
v -0.1 3 0.3
v -0.1 3.1 0.3
v 0.1 3 0.3
v 0.1 3.1 0.3
v -0.4 3 -0.7
v -0.4 3.1 -0.7
v -0.3 3 -0.7
v -0.3 3.1 -0.7
v 0.3 3 -0.7
v 0.3 3.1 -0.7
v 0.4 3 -0.7
v 0.4 3.1 -0.7
v -0.3 3 -0.8
v -0.3 3.1 -0.8
v -0.2 3 -0.8
v -0.2 3.1 -0.8
v 0.2 3 -0.8
v 0.2 3.1 -0.8
v 0.3 3 -0.8
v 0.3 3.1 -0.8
v -0.2 3 -0.9
v -0.2 3.1 -0.9
v -0.1 3 -0.9
v -0.1 3.1 -0.9
v 0.1 3 -0.9
v 0.1 3.1 -0.9
v 0.2 3 -0.9
v 0.2 3.1 -0.9
v -0.1 3 -1
v -0.1 3.1 -1
v 0.1 3 -1
v 0.1 3.1 -1
v -1.6 0 -1.6
v -1.6 3.2 -1.6
v -1.2 0 -1.6
v -1.2 2.8 -1.6
v -1.2 2.9 -1.6
v -1.2 3 -1.6
v -1.2 3.2 -1.6
v 1.2 0 -1.6
v 1.2 2.8 -1.6
v 1.2 2.9 -1.6
v 1.2 3 -1.6
v 1.2 3.2 -1.6
v 1.6 0 -1.6
v 1.6 3.2 -1.6
v -1.6 0 1.6
v -1.2 0 1.6
v 1.2 0 1.6
v 1.6 0 1.6
v -1.6 0 -1.6
v -1.2 0 -1.6
v 1.2 0 -1.6
v 1.6 0 -1.6
v -1.2 2.8 1.6
v 1.2 2.8 1.6
v -1.2 2.8 -1.6
v 1.2 2.8 -1.6
v -1.2 3 1.6
v 1.2 3 1.6
v -0.4 3 1.1
v -0.3 3 1.1
v 0.3 3 1.1
v 0.4 3 1.1
v -0.3 3 0.9
v -0.2 3 0.9
v 0.2 3 0.9
v 0.3 3 0.9
v -0.2 3 0.7
v -0.1 3 0.7
v 0.1 3 0.7
v 0.2 3 0.7
v -0.4 3 0.6
v -0.3 3 0.6
v 0.3 3 0.6
v 0.4 3 0.6
v -0.3 3 0.5
v -0.2 3 0.5
v -0.1 3 0.5
v 0.1 3 0.5
v 0.2 3 0.5
v 0.3 3 0.5
v -0.2 3 0.4
v -0.1 3 0.4
v 0.1 3 0.4
v 0.2 3 0.4
v -0.1 3 0.3
v 0.1 3 0.3
v -0.4 3 -0.2
v -0.3 3 -0.2
v 0.3 3 -0.2
v 0.4 3 -0.2
v -0.3 3 -0.4
v -0.2 3 -0.4
v 0.2 3 -0.4
v 0.3 3 -0.4
v -0.2 3 -0.6
v -0.1 3 -0.6
v 0.1 3 -0.6
v 0.2 3 -0.6
v -0.4 3 -0.7
v -0.3 3 -0.7
v 0.3 3 -0.7
v 0.4 3 -0.7
v -0.3 3 -0.8
v -0.2 3 -0.8
v -0.1 3 -0.8
v 0.1 3 -0.8
v 0.2 3 -0.8
v 0.3 3 -0.8
v -0.2 3 -0.9
v -0.1 3 -0.9
v 0.1 3 -0.9
v 0.2 3 -0.9
v -0.1 3 -1
v 0.1 3 -1
v -1.2 3 -1.6
v 1.2 3 -1.6
v -0.4 3.1 1.1
v -0.3 3.1 1.1
v 0.3 3.1 1.1
v 0.4 3.1 1.1
v -0.3 3.1 0.9
v -0.2 3.1 0.9
v 0.2 3.1 0.9
v 0.3 3.1 0.9
v -0.2 3.1 0.7
v -0.1 3.1 0.7
v 0.1 3.1 0.7
v 0.2 3.1 0.7
v -0.4 3.1 0.6
v -0.3 3.1 0.6
v 0.3 3.1 0.6
v 0.4 3.1 0.6
v -0.3 3.1 0.5
v -0.2 3.1 0.5
v -0.1 3.1 0.5
v 0.1 3.1 0.5
v 0.2 3.1 0.5
v 0.3 3.1 0.5
v -0.2 3.1 0.4
v -0.1 3.1 0.4
v 0.1 3.1 0.4
v 0.2 3.1 0.4
v -0.1 3.1 0.3
v 0.1 3.1 0.3
v -0.4 3.1 -0.2
v -0.3 3.1 -0.2
v 0.3 3.1 -0.2
v 0.4 3.1 -0.2
v -0.3 3.1 -0.4
v -0.2 3.1 -0.4
v 0.2 3.1 -0.4
v 0.3 3.1 -0.4
v -0.2 3.1 -0.6
v -0.1 3.1 -0.6
v 0.1 3.1 -0.6
v 0.2 3.1 -0.6
v -0.4 3.1 -0.7
v -0.3 3.1 -0.7
v 0.3 3.1 -0.7
v 0.4 3.1 -0.7
v -0.3 3.1 -0.8
v -0.2 3.1 -0.8
v -0.1 3.1 -0.8
v 0.1 3.1 -0.8
v 0.2 3.1 -0.8
v 0.3 3.1 -0.8
v -0.2 3.1 -0.9
v -0.1 3.1 -0.9
v 0.1 3.1 -0.9
v 0.2 3.1 -0.9
v -0.1 3.1 -1
v 0.1 3.1 -1
v -1.6 3.2 1.6
v -1.2 3.2 1.6
v 1.2 3.2 1.6
v 1.6 3.2 1.6
v -1.6 3.2 -1.6
v -1.2 3.2 -1.6
v 1.2 3.2 -1.6
v 1.6 3.2 -1.6

# faces
f 3/3/1 2/3/1 1/3/1
f 4/3/1 2/3/1 3/3/1
f 9/1/1 6/1/1 5/1/1
f 10/1/1 6/1/1 9/1/1
f 11/1/1 8/1/1 7/1/1
f 12/1/1 8/1/1 11/1/1
f 17/1/1 14/1/1 13/1/1
f 18/1/1 14/1/1 17/1/1
f 19/1/1 16/1/1 15/1/1
f 20/1/1 16/1/1 19/1/1
f 25/1/1 22/1/1 21/1/1
f 26/1/1 22/1/1 25/1/1
f 27/1/1 24/1/1 23/1/1
f 28/1/1 24/1/1 27/1/1
f 33/1/1 30/1/1 29/1/1
f 34/1/1 30/1/1 33/1/1
f 35/1/1 32/1/1 31/1/1
f 36/1/1 32/1/1 35/1/1
f 41/1/1 38/1/1 37/1/1
f 42/1/1 38/1/1 41/1/1
f 43/1/1 40/1/1 39/1/1
f 44/1/1 40/1/1 43/1/1
f 49/1/1 46/1/1 45/1/1
f 50/1/1 46/1/1 49/1/1
f 51/1/1 48/1/1 47/1/1
f 52/1/1 48/1/1 51/1/1
f 57/1/1 54/1/1 53/1/1
f 58/1/1 54/1/1 57/1/1
f 59/1/1 56/1/1 55/1/1
f 60/1/1 56/1/1 59/1/1
f 63/3/1 62/3/1 61/3/1
f 64/3/1 62/3/1 63/3/1
f 67/3/1 66/3/1 65/3/1
f 68/3/1 66/3/1 67/3/1
f 69/3/2 70/3/2 71/3/2
f 71/3/2 70/3/2 72/3/2
f 73/3/2 74/3/2 75/3/2
f 75/3/2 74/3/2 76/3/2
f 77/1/2 78/1/2 81/1/2
f 81/1/2 78/1/2 82/1/2
f 79/1/2 80/1/2 83/1/2
f 83/1/2 80/1/2 84/1/2
f 85/1/2 86/1/2 89/1/2
f 89/1/2 86/1/2 90/1/2
f 87/1/2 88/1/2 91/1/2
f 91/1/2 88/1/2 92/1/2
f 93/1/2 94/1/2 97/1/2
f 97/1/2 94/1/2 98/1/2
f 95/1/2 96/1/2 99/1/2
f 99/1/2 96/1/2 100/1/2
f 101/1/2 102/1/2 105/1/2
f 105/1/2 102/1/2 106/1/2
f 103/1/2 104/1/2 107/1/2
f 107/1/2 104/1/2 108/1/2
f 109/1/2 110/1/2 113/1/2
f 113/1/2 110/1/2 114/1/2
f 111/1/2 112/1/2 115/1/2
f 115/1/2 112/1/2 116/1/2
f 117/1/2 118/1/2 121/1/2
f 121/1/2 118/1/2 122/1/2
f 119/1/2 120/1/2 123/1/2
f 123/1/2 120/1/2 124/1/2
f 125/1/2 126/1/2 129/1/2
f 129/1/2 126/1/2 130/1/2
f 127/1/2 128/1/2 131/1/2
f 131/1/2 128/1/2 132/1/2
f 133/3/2 134/3/2 135/3/2
f 135/3/2 134/3/2 136/3/2
f 139/3/3 138/3/3 137/3/3
f 140/3/3 138/3/3 139/3/3
f 141/3/3 138/3/3 140/3/3
f 142/3/3 138/3/3 141/3/3
f 143/3/3 138/3/3 142/3/3
f 145/3/3 141/3/3 140/3/3
f 146/2/3 142/2/3 141/2/3
f 146/3/3 141/3/3 145/3/3
f 147/2/3 142/2/3 146/2/3
f 149/3/3 145/3/3 144/3/3
f 149/3/3 148/3/3 147/3/3
f 149/3/3 147/3/3 146/3/3
f 149/3/3 146/3/3 145/3/3
f 150/3/3 148/3/3 149/3/3
f 153/1/3 152/1/3 151/1/3
f 154/1/3 152/1/3 153/1/3
f 157/1/3 156/1/3 155/1/3
f 158/1/3 156/1/3 157/1/3
f 161/1/3 160/1/3 159/1/3
f 162/1/3 160/1/3 161/1/3
f 165/1/3 164/1/3 163/1/3
f 166/1/3 164/1/3 165/1/3
f 169/1/3 168/1/3 167/1/3
f 170/1/3 168/1/3 169/1/3
f 173/1/3 172/1/3 171/1/3
f 174/1/3 172/1/3 173/1/3
f 177/1/3 176/1/3 175/1/3
f 178/1/3 176/1/3 177/1/3
f 181/1/3 180/1/3 179/1/3
f 182/1/3 180/1/3 181/1/3
f 185/1/3 184/1/3 183/1/3
f 186/1/3 184/1/3 185/1/3
f 189/1/3 188/1/3 187/1/3
f 190/1/3 188/1/3 189/1/3
f 193/1/3 192/1/3 191/1/3
f 194/1/3 192/1/3 193/1/3
f 197/1/3 196/1/3 195/1/3
f 198/1/3 196/1/3 197/1/3
f 201/1/3 200/1/3 199/1/3
f 202/1/3 200/1/3 201/1/3
f 205/1/3 204/1/3 203/1/3
f 206/1/3 204/1/3 205/1/3
f 207/1/4 208/1/4 209/1/4
f 209/1/4 208/1/4 210/1/4
f 211/1/4 212/1/4 213/1/4
f 213/1/4 212/1/4 214/1/4
f 215/1/4 216/1/4 217/1/4
f 217/1/4 216/1/4 218/1/4
f 219/1/4 220/1/4 221/1/4
f 221/1/4 220/1/4 222/1/4
f 223/1/4 224/1/4 225/1/4
f 225/1/4 224/1/4 226/1/4
f 227/1/4 228/1/4 229/1/4
f 229/1/4 228/1/4 230/1/4
f 231/1/4 232/1/4 233/1/4
f 233/1/4 232/1/4 234/1/4
f 235/1/4 236/1/4 237/1/4
f 237/1/4 236/1/4 238/1/4
f 239/1/4 240/1/4 241/1/4
f 241/1/4 240/1/4 242/1/4
f 243/1/4 244/1/4 245/1/4
f 245/1/4 244/1/4 246/1/4
f 247/1/4 248/1/4 249/1/4
f 249/1/4 248/1/4 250/1/4
f 251/1/4 252/1/4 253/1/4
f 253/1/4 252/1/4 254/1/4
f 255/1/4 256/1/4 257/1/4
f 257/1/4 256/1/4 258/1/4
f 259/1/4 260/1/4 261/1/4
f 261/1/4 260/1/4 262/1/4
f 263/3/4 264/3/4 265/3/4
f 265/3/4 264/3/4 266/3/4
f 266/3/4 264/3/4 267/3/4
f 267/3/4 264/3/4 268/3/4
f 268/3/4 264/3/4 269/3/4
f 266/3/4 267/3/4 271/3/4
f 267/2/4 268/2/4 272/2/4
f 271/3/4 267/3/4 272/3/4
f 272/2/4 268/2/4 273/2/4
f 270/3/4 271/3/4 275/3/4
f 273/3/4 274/3/4 275/3/4
f 272/3/4 273/3/4 275/3/4
f 271/3/4 272/3/4 275/3/4
f 275/3/4 274/3/4 276/3/4
f 281/3/5 278/3/5 277/3/5
f 282/3/5 278/3/5 281/3/5
f 283/3/5 280/3/5 279/3/5
f 284/3/5 280/3/5 283/3/5
f 287/3/5 286/3/5 285/3/5
f 288/3/5 286/3/5 287/3/5
f 289/2/6 290/2/6 291/2/6
f 291/2/6 290/2/6 292/2/6
f 292/2/6 290/2/6 293/2/6
f 293/2/6 290/2/6 294/2/6
f 292/2/6 293/2/6 295/2/6
f 295/2/6 293/2/6 296/2/6
f 296/2/6 293/2/6 297/2/6
f 297/2/6 293/2/6 298/2/6
f 296/2/6 297/2/6 299/2/6
f 299/2/6 297/2/6 300/2/6
f 300/2/6 297/2/6 301/2/6
f 301/2/6 297/2/6 302/2/6
f 289/2/6 291/2/6 303/2/6
f 294/2/6 290/2/6 306/2/6
f 303/2/6 304/2/6 307/2/6
f 300/2/6 301/2/6 309/2/6
f 309/2/6 301/2/6 310/2/6
f 305/2/6 306/2/6 312/2/6
f 307/2/6 308/2/6 313/2/6
f 311/2/6 312/2/6 316/2/6
f 313/2/6 314/2/6 317/2/6
f 315/2/6 316/2/6 318/2/6
f 313/2/6 317/2/6 319/2/6
f 317/2/6 318/2/6 319/2/6
f 289/2/6 303/2/6 319/2/6
f 303/2/6 307/2/6 319/2/6
f 307/2/6 313/2/6 319/2/6
f 319/2/6 318/2/6 320/2/6
f 318/2/6 316/2/6 321/2/6
f 320/2/6 318/2/6 321/2/6
f 312/2/6 306/2/6 321/2/6
f 316/2/6 312/2/6 321/2/6
f 306/2/6 290/2/6 322/2/6
f 321/2/6 306/2/6 322/2/6
f 320/2/6 321/2/6 323/2/6
f 323/2/6 321/2/6 324/2/6
f 324/2/6 321/2/6 325/2/6
f 325/2/6 321/2/6 326/2/6
f 324/2/6 325/2/6 327/2/6
f 327/2/6 325/2/6 328/2/6
f 328/2/6 325/2/6 329/2/6
f 329/2/6 325/2/6 330/2/6
f 289/2/6 319/2/6 331/2/6
f 322/2/6 290/2/6 334/2/6
f 331/2/6 332/2/6 335/2/6
f 328/2/6 329/2/6 337/2/6
f 337/2/6 329/2/6 338/2/6
f 333/2/6 334/2/6 340/2/6
f 335/2/6 336/2/6 341/2/6
f 339/2/6 340/2/6 344/2/6
f 341/2/6 342/2/6 345/2/6
f 343/2/6 344/2/6 346/2/6
f 289/2/6 331/2/6 347/2/6
f 345/2/6 346/2/6 347/2/6
f 341/2/6 345/2/6 347/2/6
f 331/2/6 335/2/6 347/2/6
f 335/2/6 341/2/6 347/2/6
f 346/2/6 344/2/6 348/2/6
f 347/2/6 346/2/6 348/2/6
f 340/2/6 334/2/6 348/2/6
f 334/2/6 290/2/6 348/2/6
f 344/2/6 340/2/6 348/2/6
f 349/1/6 350/1/6 353/1/6
f 351/1/6 352/1/6 356/1/6
f 353/1/6 354/1/6 357/1/6
f 355/1/6 356/1/6 360/1/6
f 357/1/6 358/1/6 361/1/6
f 349/1/6 353/1/6 361/1/6
f 353/1/6 357/1/6 361/1/6
f 361/1/6 358/1/6 362/1/6
f 359/1/6 360/1/6 363/1/6
f 360/1/6 356/1/6 363/1/6
f 356/1/6 352/1/6 363/1/6
f 363/1/6 352/1/6 364/1/6
f 362/1/6 358/1/6 365/1/6
f 365/1/6 358/1/6 366/1/6
f 366/1/6 358/1/6 367/1/6
f 359/1/6 363/1/6 368/1/6
f 368/1/6 363/1/6 369/1/6
f 369/1/6 363/1/6 370/1/6
f 366/1/6 367/1/6 371/1/6
f 368/1/6 369/1/6 371/1/6
f 367/1/6 368/1/6 371/1/6
f 371/1/6 369/1/6 372/1/6
f 372/1/6 369/1/6 373/1/6
f 373/1/6 369/1/6 374/1/6
f 372/1/6 373/1/6 375/1/6
f 375/1/6 373/1/6 376/1/6
f 377/1/6 378/1/6 381/1/6
f 379/1/6 380/1/6 384/1/6
f 381/1/6 382/1/6 385/1/6
f 383/1/6 384/1/6 388/1/6
f 385/1/6 386/1/6 389/1/6
f 377/1/6 381/1/6 389/1/6
f 381/1/6 385/1/6 389/1/6
f 389/1/6 386/1/6 390/1/6
f 387/1/6 388/1/6 391/1/6
f 388/1/6 384/1/6 391/1/6
f 384/1/6 380/1/6 391/1/6
f 391/1/6 380/1/6 392/1/6
f 390/1/6 386/1/6 393/1/6
f 393/1/6 386/1/6 394/1/6
f 394/1/6 386/1/6 395/1/6
f 387/1/6 391/1/6 396/1/6
f 396/1/6 391/1/6 397/1/6
f 397/1/6 391/1/6 398/1/6
f 394/1/6 395/1/6 399/1/6
f 396/1/6 397/1/6 399/1/6
f 395/1/6 396/1/6 399/1/6
f 399/1/6 397/1/6 400/1/6
f 400/1/6 397/1/6 401/1/6
f 401/1/6 397/1/6 402/1/6
f 400/1/6 401/1/6 403/1/6
f 403/1/6 401/1/6 404/1/6
f 405/3/6 406/3/6 409/3/6
f 409/3/6 406/3/6 410/3/6
f 407/3/6 408/3/6 411/3/6
f 411/3/6 408/3/6 412/3/6
