# MagicaVoxel @ Ephtracy

# group
o 

# material
mtllib pince.mtl
usemtl palette

# normals
vn -1 0 0
vn 1 0 0
vn 0 0 1
vn 0 0 -1
vn 0 -1 0
vn 0 1 0

# texcoords
vt 0.0253906 0.5
vt 0.115234 0.5
vt 0.123047 0.5

# verts
v -0.8 0 0.1
v -0.8 0 0
v -0.8 0 -0.1
v -0.8 0 -0.2
v -0.8 0.1 0.1
v -0.8 0.1 0
v -0.8 0.1 -0.1
v -0.8 0.1 -0.2
v -0.7 0 0.2
v -0.7 0 0.1
v -0.7 0 -0.2
v -0.7 0 -0.3
v -0.7 0.1 0.2
v -0.7 0.1 0.1
v -0.7 0.1 -0.2
v -0.7 0.1 -0.3
v -0.6 0 0.3
v -0.6 0 0.2
v -0.6 0 -0.3
v -0.6 0 -0.4
v -0.6 0.1 0.3
v -0.6 0.1 0.2
v -0.6 0.1 -0.3
v -0.6 0.1 -0.4
v -0.4 0 0.1
v -0.4 0 0
v -0.4 0 -0.1
v -0.4 0 -0.2
v -0.4 0.1 0.1
v -0.4 0.1 0
v -0.4 0.1 -0.1
v -0.4 0.1 -0.2
v -0.3 0 0
v -0.3 0 -0.1
v -0.3 0.1 0
v -0.3 0.1 -0.1
v -0.2 -0.1 0
v -0.2 -0.1 -0.1
v -0.2 0 0
v -0.2 0 -0.1
v -0.2 0.1 0
v -0.2 0.1 -0.1
v -0.2 0.2 0
v -0.2 0.2 -0.1
v -0.1 -0.1 0.1
v -0.1 -0.1 0
v -0.1 -0.1 -0.1
v -0.1 -0.1 -0.2
v -0.1 0 0.2
v -0.1 0 0.1
v -0.1 0 0
v -0.1 0 -0.1
v -0.1 0 -0.2
v -0.1 0 -0.3
v -0.1 0.1 0.2
v -0.1 0.1 0.1
v -0.1 0.1 0
v -0.1 0.1 -0.1
v -0.1 0.1 -0.2
v -0.1 0.1 -0.3
v -0.1 0.2 0.1
v -0.1 0.2 0
v -0.1 0.2 -0.1
v -0.1 0.2 -0.2
v 0 -0.1 -0.2
v 0 -0.1 -0.3
v 0 0 -0.2
v 0 0 -0.3
v 0.1 -0.1 0.2
v 0.1 -0.1 0.1
v 0.1 0 0.3
v 0.1 0 0.2
v 0.1 0 0.1
v 0.1 0 -0.3
v 0.1 0 -0.4
v 0.1 0.1 0.3
v 0.1 0.1 0.2
v 0.1 0.1 0.1
v 0.1 0.1 -0.2
v 0.1 0.1 -0.3
v 0.1 0.1 -0.4
v 0.1 0.2 0.2
v 0.1 0.2 0.1
v 0.1 0.2 -0.2
v 0.1 0.2 -0.3
v 0.2 -0.1 0.3
v 0.2 -0.1 0.2
v 0.2 -0.1 -0.3
v 0.2 -0.1 -0.4
v 0.2 0 0.3
v 0.2 0 0.2
v 0.2 0 -0.3
v 0.2 0 -0.4
v 0.2 0.1 0.3
v 0.2 0.1 0.2
v 0.2 0.1 -0.3
v 0.2 0.1 -0.4
v 0.2 0.2 0.3
v 0.2 0.2 0.2
v 0.2 0.2 -0.3
v 0.2 0.2 -0.4
v -0.6 0 0.1
v -0.6 0 0
v -0.6 0 -0.1
v -0.6 0 -0.2
v -0.6 0.1 0.1
v -0.6 0.1 0
v -0.6 0.1 -0.1
v -0.6 0.1 -0.2
v -0.3 0 0.3
v -0.3 0 0.2
v -0.3 0 -0.3
v -0.3 0 -0.4
v -0.3 0.1 0.3
v -0.3 0.1 0.2
v -0.3 0.1 -0.3
v -0.3 0.1 -0.4
v -0.2 0 0.2
v -0.2 0 0.1
v -0.2 0 -0.2
v -0.2 0 -0.3
v -0.2 0.1 0.2
v -0.2 0.1 0.1
v -0.2 0.1 -0.2
v -0.2 0.1 -0.3
v 0 -0.1 0
v 0 -0.1 -0.1
v 0 0.2 0
v 0 0.2 -0.1
v 0.1 -0.1 0.1
v 0.1 -0.1 0
v 0.1 -0.1 -0.1
v 0.1 -0.1 -0.2
v 0.1 0 0.1
v 0.1 0 0
v 0.1 0 -0.1
v 0.1 0 -0.2
v 0.1 0.1 0.1
v 0.1 0.1 0
v 0.1 0.1 -0.1
v 0.1 0.1 -0.2
v 0.1 0.2 0.1
v 0.1 0.2 0
v 0.1 0.2 -0.1
v 0.1 0.2 -0.2
v 0.3 0 0.1
v 0.3 0 0
v 0.3 0 -0.1
v 0.3 0 -0.2
v 0.3 0.1 0.1
v 0.3 0.1 0
v 0.3 0.1 -0.1
v 0.3 0.1 -0.2
v 0.5 0.1 -0.3
v 0.5 0.1 -0.4
v 0.5 0.2 -0.3
v 0.5 0.2 -0.4
v 0.6 -0.1 0.3
v 0.6 -0.1 0.2
v 0.6 -0.1 -0.3
v 0.6 -0.1 -0.4
v 0.6 0 0.3
v 0.6 0 0.2
v 0.6 0 -0.3
v 0.6 0 -0.4
v 0.6 0.1 0.3
v 0.6 0.1 0.1
v 0.6 0.1 -0.2
v 0.6 0.1 -0.3
v 0.6 0.2 0.3
v 0.6 0.2 0.1
v 0.6 0.2 -0.2
v 0.6 0.2 -0.3
v 0.7 -0.1 0.2
v 0.7 -0.1 0.1
v 0.7 -0.1 -0.2
v 0.7 -0.1 -0.3
v 0.7 0 0.3
v 0.7 0 0.2
v 0.7 0 0.1
v 0.7 0 -0.2
v 0.7 0 -0.3
v 0.7 0 -0.4
v 0.7 0.1 0.3
v 0.7 0.1 0.2
v 0.7 0.1 -0.3
v 0.7 0.1 -0.4
v 0.8 0 0.2
v 0.8 0 0.1
v 0.8 0 -0.2
v 0.8 0 -0.3
v 0.8 0.1 0.2
v 0.8 0.1 0.1
v 0.8 0.1 -0.2
v 0.8 0.1 -0.3
v -0.6 0 0.3
v -0.6 0.1 0.3
v -0.3 0 0.3
v -0.3 0.1 0.3
v 0.1 0 0.3
v 0.1 0.1 0.3
v 0.2 -0.1 0.3
v 0.2 0 0.3
v 0.2 0.1 0.3
v 0.2 0.2 0.3
v 0.6 -0.1 0.3
v 0.6 0 0.3
v 0.6 0.1 0.3
v 0.6 0.2 0.3
v 0.7 0 0.3
v 0.7 0.1 0.3
v -0.7 0 0.2
v -0.7 0.1 0.2
v -0.6 0 0.2
v -0.6 0.1 0.2
v -0.3 0 0.2
v -0.3 0.1 0.2
v -0.2 0 0.2
v -0.2 0.1 0.2
v -0.1 0 0.2
v -0.1 0.1 0.2
v 0.1 -0.1 0.2
v 0.1 0 0.2
v 0.1 0.1 0.2
v 0.1 0.2 0.2
v 0.2 -0.1 0.2
v 0.2 0 0.2
v 0.2 0.1 0.2
v 0.2 0.2 0.2
v 0.6 -0.1 0.2
v 0.6 0 0.2
v 0.7 -0.1 0.2
v 0.7 0 0.2
v 0.7 0.1 0.2
v 0.8 0 0.2
v 0.8 0.1 0.2
v -0.8 0 0.1
v -0.8 0.1 0.1
v -0.7 0 0.1
v -0.7 0.1 0.1
v -0.2 0 0.1
v -0.2 0.1 0.1
v -0.1 -0.1 0.1
v -0.1 0 0.1
v -0.1 0.1 0.1
v -0.1 0.2 0.1
v 0.1 -0.1 0.1
v 0.1 0 0.1
v 0.1 0.1 0.1
v 0.1 0.2 0.1
v -0.2 -0.1 0
v -0.2 0 0
v -0.2 0.1 0
v -0.2 0.2 0
v -0.1 -0.1 0
v -0.1 0 0
v -0.1 0.1 0
v -0.1 0.2 0
v -0.8 0 -0.1
v -0.8 0.1 -0.1
v -0.6 0 -0.1
v -0.6 0.1 -0.1
v -0.4 0 -0.1
v -0.4 0.1 -0.1
v -0.3 0 -0.1
v -0.3 0.1 -0.1
v 0 -0.1 -0.1
v 0 0.2 -0.1
v 0.1 -0.1 -0.1
v 0.1 0 -0.1
v 0.1 0.1 -0.1
v 0.1 0.2 -0.1
v 0.3 0 -0.1
v 0.3 0.1 -0.1
v -0.6 0 -0.2
v -0.6 0.1 -0.2
v -0.4 0 -0.2
v -0.4 0.1 -0.2
v 0.1 -0.1 -0.2
v 0.1 0 -0.2
v 0.1 0.1 -0.2
v 0.1 0.2 -0.2
v 0.3 0 -0.2
v 0.3 0.1 -0.2
v 0.6 0.1 -0.2
v 0.6 0.2 -0.2
v 0.7 -0.1 -0.2
v 0.7 0 -0.2
v 0.8 0 -0.2
v 0.8 0.1 -0.2
v -0.6 0 0.1
v -0.6 0.1 0.1
v -0.4 0 0.1
v -0.4 0.1 0.1
v 0.1 -0.1 0.1
v 0.1 0 0.1
v 0.1 0.1 0.1
v 0.1 0.2 0.1
v 0.3 0 0.1
v 0.3 0.1 0.1
v 0.6 0.1 0.1
v 0.6 0.2 0.1
v 0.7 -0.1 0.1
v 0.7 0 0.1
v 0.8 0 0.1
v 0.8 0.1 0.1
v -0.8 0 0
v -0.8 0.1 0
v -0.6 0 0
v -0.6 0.1 0
v -0.4 0 0
v -0.4 0.1 0
v -0.3 0 0
v -0.3 0.1 0
v 0 -0.1 0
v 0 0.2 0
v 0.1 -0.1 0
v 0.1 0 0
v 0.1 0.1 0
v 0.1 0.2 0
v 0.3 0 0
v 0.3 0.1 0
v -0.2 -0.1 -0.1
v -0.2 0 -0.1
v -0.2 0.1 -0.1
v -0.2 0.2 -0.1
v -0.1 -0.1 -0.1
v -0.1 0 -0.1
v -0.1 0.1 -0.1
v -0.1 0.2 -0.1
v -0.8 0 -0.2
v -0.8 0.1 -0.2
v -0.7 0 -0.2
v -0.7 0.1 -0.2
v -0.2 0 -0.2
v -0.2 0.1 -0.2
v -0.1 -0.1 -0.2
v -0.1 0 -0.2
v -0.1 0.1 -0.2
v -0.1 0.2 -0.2
v 0 -0.1 -0.2
v 0 0 -0.2
v 0.1 0.1 -0.2
v 0.1 0.2 -0.2
v -0.7 0 -0.3
v -0.7 0.1 -0.3
v -0.6 0 -0.3
v -0.6 0.1 -0.3
v -0.3 0 -0.3
v -0.3 0.1 -0.3
v -0.2 0 -0.3
v -0.2 0.1 -0.3
v -0.1 0 -0.3
v -0.1 0.1 -0.3
v 0 -0.1 -0.3
v 0 0 -0.3
v 0.1 0 -0.3
v 0.1 0.1 -0.3
v 0.1 0.2 -0.3
v 0.2 -0.1 -0.3
v 0.2 0 -0.3
v 0.2 0.1 -0.3
v 0.2 0.2 -0.3
v 0.5 0.1 -0.3
v 0.5 0.2 -0.3
v 0.6 -0.1 -0.3
v 0.6 0 -0.3
v 0.6 0.1 -0.3
v 0.6 0.2 -0.3
v 0.7 -0.1 -0.3
v 0.7 0 -0.3
v 0.7 0.1 -0.3
v 0.8 0 -0.3
v 0.8 0.1 -0.3
v -0.6 0 -0.4
v -0.6 0.1 -0.4
v -0.3 0 -0.4
v -0.3 0.1 -0.4
v 0.1 0 -0.4
v 0.1 0.1 -0.4
v 0.2 -0.1 -0.4
v 0.2 0 -0.4
v 0.2 0.1 -0.4
v 0.2 0.2 -0.4
v 0.5 0.1 -0.4
v 0.5 0.2 -0.4
v 0.6 -0.1 -0.4
v 0.6 0 -0.4
v 0.7 0 -0.4
v 0.7 0.1 -0.4
v 0.2 -0.1 0.3
v 0.6 -0.1 0.3
v 0.1 -0.1 0.2
v 0.2 -0.1 0.2
v 0.6 -0.1 0.2
v 0.7 -0.1 0.2
v -0.1 -0.1 0.1
v 0.1 -0.1 0.1
v 0.7 -0.1 0.1
v -0.2 -0.1 0
v -0.1 -0.1 0
v 0 -0.1 0
v 0.1 -0.1 0
v -0.2 -0.1 -0.1
v -0.1 -0.1 -0.1
v 0 -0.1 -0.1
v 0.1 -0.1 -0.1
v -0.1 -0.1 -0.2
v 0 -0.1 -0.2
v 0.1 -0.1 -0.2
v 0.7 -0.1 -0.2
v 0 -0.1 -0.3
v 0.2 -0.1 -0.3
v 0.6 -0.1 -0.3
v 0.7 -0.1 -0.3
v 0.2 -0.1 -0.4
v 0.6 -0.1 -0.4
v -0.6 0 0.3
v -0.3 0 0.3
v 0.1 0 0.3
v 0.2 0 0.3
v 0.6 0 0.3
v 0.7 0 0.3
v -0.7 0 0.2
v -0.6 0 0.2
v -0.3 0 0.2
v -0.2 0 0.2
v -0.1 0 0.2
v 0.1 0 0.2
v 0.2 0 0.2
v 0.6 0 0.2
v 0.7 0 0.2
v 0.8 0 0.2
v -0.8 0 0.1
v -0.7 0 0.1
v -0.6 0 0.1
v -0.4 0 0.1
v -0.2 0 0.1
v -0.1 0 0.1
v 0.1 0 0.1
v 0.3 0 0.1
v 0.7 0 0.1
v 0.8 0 0.1
v -0.8 0 0
v -0.6 0 0
v -0.4 0 0
v -0.3 0 0
v -0.2 0 0
v -0.1 0 0
v 0.1 0 0
v 0.3 0 0
v -0.8 0 -0.1
v -0.6 0 -0.1
v -0.4 0 -0.1
v -0.3 0 -0.1
v -0.2 0 -0.1
v -0.1 0 -0.1
v 0.1 0 -0.1
v 0.3 0 -0.1
v -0.8 0 -0.2
v -0.7 0 -0.2
v -0.6 0 -0.2
v -0.4 0 -0.2
v -0.2 0 -0.2
v -0.1 0 -0.2
v 0 0 -0.2
v 0.1 0 -0.2
v 0.3 0 -0.2
v 0.7 0 -0.2
v 0.8 0 -0.2
v -0.7 0 -0.3
v -0.6 0 -0.3
v -0.3 0 -0.3
v -0.2 0 -0.3
v -0.1 0 -0.3
v 0 0 -0.3
v 0.1 0 -0.3
v 0.2 0 -0.3
v 0.6 0 -0.3
v 0.7 0 -0.3
v 0.8 0 -0.3
v -0.6 0 -0.4
v -0.3 0 -0.4
v 0.1 0 -0.4
v 0.2 0 -0.4
v 0.6 0 -0.4
v 0.7 0 -0.4
v -0.6 0.1 0.3
v -0.3 0.1 0.3
v 0.1 0.1 0.3
v 0.2 0.1 0.3
v 0.6 0.1 0.3
v 0.7 0.1 0.3
v -0.7 0.1 0.2
v -0.6 0.1 0.2
v -0.3 0.1 0.2
v -0.2 0.1 0.2
v -0.1 0.1 0.2
v 0.1 0.1 0.2
v 0.2 0.1 0.2
v 0.7 0.1 0.2
v 0.8 0.1 0.2
v -0.8 0.1 0.1
v -0.7 0.1 0.1
v -0.6 0.1 0.1
v -0.4 0.1 0.1
v -0.2 0.1 0.1
v -0.1 0.1 0.1
v 0.1 0.1 0.1
v 0.3 0.1 0.1
v 0.6 0.1 0.1
v 0.8 0.1 0.1
v -0.8 0.1 0
v -0.6 0.1 0
v -0.4 0.1 0
v -0.3 0.1 0
v -0.2 0.1 0
v -0.1 0.1 0
v 0.1 0.1 0
v 0.3 0.1 0
v -0.8 0.1 -0.1
v -0.6 0.1 -0.1
v -0.4 0.1 -0.1
v -0.3 0.1 -0.1
v -0.2 0.1 -0.1
v -0.1 0.1 -0.1
v 0.1 0.1 -0.1
v 0.3 0.1 -0.1
v -0.8 0.1 -0.2
v -0.7 0.1 -0.2
v -0.6 0.1 -0.2
v -0.4 0.1 -0.2
v -0.2 0.1 -0.2
v -0.1 0.1 -0.2
v 0.1 0.1 -0.2
v 0.3 0.1 -0.2
v 0.6 0.1 -0.2
v 0.8 0.1 -0.2
v -0.7 0.1 -0.3
v -0.6 0.1 -0.3
v -0.3 0.1 -0.3
v -0.2 0.1 -0.3
v -0.1 0.1 -0.3
v 0.1 0.1 -0.3
v 0.2 0.1 -0.3
v 0.5 0.1 -0.3
v 0.6 0.1 -0.3
v 0.7 0.1 -0.3
v 0.8 0.1 -0.3
v -0.6 0.1 -0.4
v -0.3 0.1 -0.4
v 0.1 0.1 -0.4
v 0.2 0.1 -0.4
v 0.5 0.1 -0.4
v 0.7 0.1 -0.4
v 0.2 0.2 0.3
v 0.6 0.2 0.3
v 0.1 0.2 0.2
v 0.2 0.2 0.2
v -0.1 0.2 0.1
v 0.1 0.2 0.1
v 0.6 0.2 0.1
v -0.2 0.2 0
v -0.1 0.2 0
v 0 0.2 0
v 0.1 0.2 0
v -0.2 0.2 -0.1
v -0.1 0.2 -0.1
v 0 0.2 -0.1
v 0.1 0.2 -0.1
v -0.1 0.2 -0.2
v 0.1 0.2 -0.2
v 0.6 0.2 -0.2
v 0.1 0.2 -0.3
v 0.2 0.2 -0.3
v 0.5 0.2 -0.3
v 0.6 0.2 -0.3
v 0.2 0.2 -0.4
v 0.5 0.2 -0.4

# faces
f 5/2/1 2/2/1 1/2/1
f 6/2/1 2/2/1 5/2/1
f 7/2/1 4/2/1 3/2/1
f 8/2/1 4/2/1 7/2/1
f 13/2/1 10/2/1 9/2/1
f 14/2/1 10/2/1 13/2/1
f 15/2/1 12/2/1 11/2/1
f 16/2/1 12/2/1 15/2/1
f 21/2/1 18/2/1 17/2/1
f 22/2/1 18/2/1 21/2/1
f 23/2/1 20/2/1 19/2/1
f 24/2/1 20/2/1 23/2/1
f 29/2/1 26/2/1 25/2/1
f 30/2/1 26/2/1 29/2/1
f 31/2/1 28/2/1 27/2/1
f 32/2/1 28/2/1 31/2/1
f 35/2/1 34/2/1 33/2/1
f 36/2/1 34/2/1 35/2/1
f 39/3/1 38/3/1 37/3/1
f 40/3/1 38/3/1 39/3/1
f 43/3/1 42/3/1 41/3/1
f 44/3/1 42/3/1 43/3/1
f 50/1/1 46/1/1 45/1/1
f 51/1/1 46/1/1 50/1/1
f 52/1/1 48/1/1 47/1/1
f 53/1/1 48/1/1 52/1/1
f 55/1/1 50/1/1 49/1/1
f 56/1/1 50/1/1 55/1/1
f 59/1/1 54/1/1 53/1/1
f 60/1/1 54/1/1 59/1/1
f 61/1/1 57/1/1 56/1/1
f 62/1/1 57/1/1 61/1/1
f 63/1/1 59/1/1 58/1/1
f 64/1/1 59/1/1 63/1/1
f 67/1/1 66/1/1 65/1/1
f 68/1/1 66/1/1 67/1/1
f 72/1/1 70/1/1 69/1/1
f 73/1/1 70/1/1 72/1/1
f 76/1/1 72/1/1 71/1/1
f 77/1/1 72/1/1 76/1/1
f 80/1/1 75/1/1 74/1/1
f 81/1/1 75/1/1 80/1/1
f 82/1/1 78/1/1 77/1/1
f 83/1/1 78/1/1 82/1/1
f 84/1/1 80/1/1 79/1/1
f 85/1/1 80/1/1 84/1/1
f 90/1/1 87/1/1 86/1/1
f 91/1/1 87/1/1 90/1/1
f 92/1/1 89/1/1 88/1/1
f 93/1/1 89/1/1 92/1/1
f 98/1/1 95/1/1 94/1/1
f 99/1/1 95/1/1 98/1/1
f 100/1/1 97/1/1 96/1/1
f 101/1/1 97/1/1 100/1/1
f 102/2/2 103/2/2 106/2/2
f 106/2/2 103/2/2 107/2/2
f 104/2/2 105/2/2 108/2/2
f 108/2/2 105/2/2 109/2/2
f 110/2/2 111/2/2 114/2/2
f 114/2/2 111/2/2 115/2/2
f 112/2/2 113/2/2 116/2/2
f 116/2/2 113/2/2 117/2/2
f 118/2/2 119/2/2 122/2/2
f 122/2/2 119/2/2 123/2/2
f 120/2/2 121/2/2 124/2/2
f 124/2/2 121/2/2 125/2/2
f 126/1/2 127/1/2 128/1/2
f 128/1/2 127/1/2 129/1/2
f 130/1/2 131/1/2 134/1/2
f 134/1/2 131/1/2 135/1/2
f 132/1/2 133/1/2 136/1/2
f 136/1/2 133/1/2 137/1/2
f 138/1/2 139/1/2 142/1/2
f 142/1/2 139/1/2 143/1/2
f 140/1/2 141/1/2 144/1/2
f 144/1/2 141/1/2 145/1/2
f 146/1/2 147/1/2 150/1/2
f 150/1/2 147/1/2 151/1/2
f 148/1/2 149/1/2 152/1/2
f 152/1/2 149/1/2 153/1/2
f 154/1/2 155/1/2 156/1/2
f 156/1/2 155/1/2 157/1/2
f 158/1/2 159/1/2 162/1/2
f 162/1/2 159/1/2 163/1/2
f 160/1/2 161/1/2 164/1/2
f 164/1/2 161/1/2 165/1/2
f 166/1/2 167/1/2 170/1/2
f 170/1/2 167/1/2 171/1/2
f 168/1/2 169/1/2 172/1/2
f 172/1/2 169/1/2 173/1/2
f 174/1/2 175/1/2 179/1/2
f 179/1/2 175/1/2 180/1/2
f 176/1/2 177/1/2 181/1/2
f 181/1/2 177/1/2 182/1/2
f 178/1/2 179/1/2 184/1/2
f 184/1/2 179/1/2 185/1/2
f 182/1/2 183/1/2 186/1/2
f 186/1/2 183/1/2 187/1/2
f 188/1/2 189/1/2 192/1/2
f 192/1/2 189/1/2 193/1/2
f 190/1/2 191/1/2 194/1/2
f 194/1/2 191/1/2 195/1/2
f 198/2/3 197/2/3 196/2/3
f 199/2/3 197/2/3 198/2/3
f 203/1/3 201/1/3 200/1/3
f 204/1/3 201/1/3 203/1/3
f 206/1/3 204/1/3 203/1/3
f 206/1/3 205/1/3 204/1/3
f 206/1/3 203/1/3 202/1/3
f 207/1/3 205/1/3 206/1/3
f 208/1/3 205/1/3 207/1/3
f 209/1/3 205/1/3 208/1/3
f 210/1/3 208/1/3 207/1/3
f 211/1/3 208/1/3 210/1/3
f 214/2/3 213/2/3 212/2/3
f 215/2/3 213/2/3 214/2/3
f 218/2/3 217/2/3 216/2/3
f 219/2/3 217/2/3 218/2/3
f 223/1/3 221/1/3 220/1/3
f 224/1/3 221/1/3 223/1/3
f 226/1/3 223/1/3 222/1/3
f 227/1/3 223/1/3 226/1/3
f 228/1/3 225/1/3 224/1/3
f 229/1/3 225/1/3 228/1/3
f 232/1/3 231/1/3 230/1/3
f 233/1/3 231/1/3 232/1/3
f 235/1/3 234/1/3 233/1/3
f 236/1/3 234/1/3 235/1/3
f 239/2/3 238/2/3 237/2/3
f 240/2/3 238/2/3 239/2/3
f 244/1/3 242/1/3 241/1/3
f 245/1/3 242/1/3 244/1/3
f 247/1/3 244/1/3 243/1/3
f 248/1/3 244/1/3 247/1/3
f 249/1/3 246/1/3 245/1/3
f 250/1/3 246/1/3 249/1/3
f 255/3/3 252/3/3 251/3/3
f 256/3/3 252/3/3 255/3/3
f 257/3/3 254/3/3 253/3/3
f 258/3/3 254/3/3 257/3/3
f 261/2/3 260/2/3 259/2/3
f 262/2/3 260/2/3 261/2/3
f 265/2/3 264/2/3 263/2/3
f 266/2/3 264/2/3 265/2/3
f 269/1/3 268/1/3 267/1/3
f 270/1/3 268/1/3 269/1/3
f 271/1/3 268/1/3 270/1/3
f 272/1/3 268/1/3 271/1/3
f 273/1/3 271/1/3 270/1/3
f 274/1/3 271/1/3 273/1/3
f 277/2/3 276/2/3 275/2/3
f 278/2/3 276/2/3 277/2/3
f 283/1/3 280/1/3 279/1/3
f 284/1/3 282/1/3 281/1/3
f 285/1/3 282/1/3 284/1/3
f 285/1/3 284/1/3 283/1/3
f 286/1/3 282/1/3 285/1/3
f 287/1/3 283/1/3 279/1/3
f 287/1/3 285/1/3 283/1/3
f 288/1/3 285/1/3 287/1/3
f 289/1/3 285/1/3 288/1/3
f 290/1/3 285/1/3 289/1/3
f 291/2/4 292/2/4 293/2/4
f 293/2/4 292/2/4 294/2/4
f 295/1/4 296/1/4 299/1/4
f 297/1/4 298/1/4 300/1/4
f 300/1/4 298/1/4 301/1/4
f 299/1/4 300/1/4 301/1/4
f 301/1/4 298/1/4 302/1/4
f 295/1/4 299/1/4 303/1/4
f 299/1/4 301/1/4 303/1/4
f 303/1/4 301/1/4 304/1/4
f 304/1/4 301/1/4 305/1/4
f 305/1/4 301/1/4 306/1/4
f 307/2/4 308/2/4 309/2/4
f 309/2/4 308/2/4 310/2/4
f 311/2/4 312/2/4 313/2/4
f 313/2/4 312/2/4 314/2/4
f 315/1/4 316/1/4 317/1/4
f 317/1/4 316/1/4 318/1/4
f 318/1/4 316/1/4 319/1/4
f 319/1/4 316/1/4 320/1/4
f 318/1/4 319/1/4 321/1/4
f 321/1/4 319/1/4 322/1/4
f 323/3/4 324/3/4 327/3/4
f 327/3/4 324/3/4 328/3/4
f 325/3/4 326/3/4 329/3/4
f 329/3/4 326/3/4 330/3/4
f 331/2/4 332/2/4 333/2/4
f 333/2/4 332/2/4 334/2/4
f 335/1/4 336/1/4 338/1/4
f 338/1/4 336/1/4 339/1/4
f 337/1/4 338/1/4 341/1/4
f 341/1/4 338/1/4 342/1/4
f 339/1/4 340/1/4 343/1/4
f 343/1/4 340/1/4 344/1/4
f 345/2/4 346/2/4 347/2/4
f 347/2/4 346/2/4 348/2/4
f 349/2/4 350/2/4 351/2/4
f 351/2/4 350/2/4 352/2/4
f 353/1/4 354/1/4 356/1/4
f 356/1/4 354/1/4 357/1/4
f 355/1/4 356/1/4 357/1/4
f 357/1/4 354/1/4 358/1/4
f 355/1/4 357/1/4 360/1/4
f 360/1/4 357/1/4 361/1/4
f 358/1/4 359/1/4 362/1/4
f 362/1/4 359/1/4 363/1/4
f 364/1/4 365/1/4 368/1/4
f 368/1/4 365/1/4 369/1/4
f 366/1/4 367/1/4 370/1/4
f 370/1/4 367/1/4 371/1/4
f 371/1/4 372/1/4 373/1/4
f 373/1/4 372/1/4 374/1/4
f 375/2/4 376/2/4 377/2/4
f 377/2/4 376/2/4 378/2/4
f 379/1/4 380/1/4 382/1/4
f 382/1/4 380/1/4 383/1/4
f 382/1/4 383/1/4 385/1/4
f 383/1/4 384/1/4 385/1/4
f 381/1/4 382/1/4 385/1/4
f 385/1/4 384/1/4 386/1/4
f 381/1/4 385/1/4 387/1/4
f 387/1/4 385/1/4 388/1/4
f 388/1/4 385/1/4 389/1/4
f 389/1/4 385/1/4 390/1/4
f 394/1/5 392/1/5 391/1/5
f 395/1/5 392/1/5 394/1/5
f 398/1/5 394/1/5 393/1/5
f 398/1/5 396/1/5 395/1/5
f 398/1/5 395/1/5 394/1/5
f 399/1/5 396/1/5 398/1/5
f 401/1/5 398/1/5 397/1/5
f 402/1/5 398/1/5 401/1/5
f 403/1/5 398/1/5 402/1/5
f 404/3/5 401/3/5 400/3/5
f 405/1/5 402/1/5 401/1/5
f 405/3/5 401/3/5 404/3/5
f 406/1/5 402/1/5 405/1/5
f 408/1/5 407/1/5 406/1/5
f 408/1/5 406/1/5 405/1/5
f 409/1/5 407/1/5 408/1/5
f 410/1/5 407/1/5 409/1/5
f 412/1/5 410/1/5 409/1/5
f 412/1/5 411/1/5 410/1/5
f 413/1/5 411/1/5 412/1/5
f 414/1/5 411/1/5 413/1/5
f 415/1/5 411/1/5 414/1/5
f 416/1/5 414/1/5 413/1/5
f 417/1/5 414/1/5 416/1/5
f 425/2/5 419/2/5 418/2/5
f 426/2/5 419/2/5 425/2/5
f 429/1/5 421/1/5 420/1/5
f 430/1/5 421/1/5 429/1/5
f 431/1/5 423/1/5 422/1/5
f 432/1/5 423/1/5 431/1/5
f 435/2/5 427/2/5 426/2/5
f 435/2/5 425/2/5 424/2/5
f 435/2/5 426/2/5 425/2/5
f 436/2/5 427/2/5 435/2/5
f 437/2/5 427/2/5 436/2/5
f 438/2/5 427/2/5 437/2/5
f 439/1/5 429/1/5 428/1/5
f 440/1/5 429/1/5 439/1/5
f 442/1/5 433/1/5 432/1/5
f 443/1/5 433/1/5 442/1/5
f 444/2/5 435/2/5 434/2/5
f 444/2/5 436/2/5 435/2/5
f 445/2/5 436/2/5 444/2/5
f 446/2/5 438/2/5 437/2/5
f 447/2/5 438/2/5 446/2/5
f 448/1/5 439/1/5 438/1/5
f 448/2/5 438/2/5 447/2/5
f 449/1/5 439/1/5 448/1/5
f 450/1/5 441/1/5 440/1/5
f 451/1/5 441/1/5 450/1/5
f 455/2/5 448/2/5 447/2/5
f 456/2/5 448/2/5 455/2/5
f 460/2/5 453/2/5 452/2/5
f 461/2/5 453/2/5 460/2/5
f 462/2/5 453/2/5 461/2/5
f 463/2/5 455/2/5 454/2/5
f 463/2/5 456/2/5 455/2/5
f 464/1/5 457/1/5 456/1/5
f 464/2/5 456/2/5 463/2/5
f 465/1/5 457/1/5 464/1/5
f 467/1/5 459/1/5 458/1/5
f 468/1/5 459/1/5 467/1/5
f 471/2/5 462/2/5 461/2/5
f 471/2/5 464/2/5 463/2/5
f 471/2/5 463/2/5 462/2/5
f 472/2/5 464/2/5 471/2/5
f 473/2/5 464/2/5 472/2/5
f 474/2/5 464/2/5 473/2/5
f 475/1/5 466/1/5 465/1/5
f 476/1/5 466/1/5 475/1/5
f 480/1/5 470/1/5 469/1/5
f 481/1/5 470/1/5 480/1/5
f 482/2/5 473/2/5 472/2/5
f 483/2/5 473/2/5 482/2/5
f 484/1/5 478/1/5 477/1/5
f 485/1/5 478/1/5 484/1/5
f 486/1/5 480/1/5 479/1/5
f 487/1/5 480/1/5 486/1/5
f 488/2/6 489/2/6 495/2/6
f 495/2/6 489/2/6 496/2/6
f 490/1/6 491/1/6 499/1/6
f 499/1/6 491/1/6 500/1/6
f 492/1/6 493/1/6 501/1/6
f 496/2/6 497/2/6 504/2/6
f 494/2/6 495/2/6 504/2/6
f 495/2/6 496/2/6 504/2/6
f 504/2/6 497/2/6 505/2/6
f 505/2/6 497/2/6 506/2/6
f 506/2/6 497/2/6 507/2/6
f 498/1/6 499/1/6 508/1/6
f 508/1/6 499/1/6 509/1/6
f 501/1/6 502/1/6 511/1/6
f 492/1/6 501/1/6 511/1/6
f 511/1/6 502/1/6 512/1/6
f 503/2/6 504/2/6 513/2/6
f 504/2/6 505/2/6 513/2/6
f 513/2/6 505/2/6 514/2/6
f 506/2/6 507/2/6 515/2/6
f 515/2/6 507/2/6 516/2/6
f 507/1/6 508/1/6 517/1/6
f 516/2/6 507/2/6 517/2/6
f 517/1/6 508/1/6 518/1/6
f 509/1/6 510/1/6 519/1/6
f 519/1/6 510/1/6 520/1/6
f 516/2/6 517/2/6 524/2/6
f 524/2/6 517/2/6 525/2/6
f 521/2/6 522/2/6 529/2/6
f 529/2/6 522/2/6 530/2/6
f 530/2/6 522/2/6 531/2/6
f 523/2/6 524/2/6 532/2/6
f 524/2/6 525/2/6 532/2/6
f 525/1/6 526/1/6 533/1/6
f 532/2/6 525/2/6 533/2/6
f 533/1/6 526/1/6 534/1/6
f 527/1/6 528/1/6 535/1/6
f 535/1/6 528/1/6 536/1/6
f 530/2/6 531/2/6 539/2/6
f 532/2/6 533/2/6 539/2/6
f 531/2/6 532/2/6 539/2/6
f 539/2/6 533/2/6 540/2/6
f 540/2/6 533/2/6 541/2/6
f 541/2/6 533/2/6 542/2/6
f 534/1/6 535/1/6 543/1/6
f 543/1/6 535/1/6 544/1/6
f 537/1/6 538/1/6 547/1/6
f 547/1/6 538/1/6 548/1/6
f 548/1/6 538/1/6 549/1/6
f 540/2/6 541/2/6 550/2/6
f 550/2/6 541/2/6 551/2/6
f 544/1/6 545/1/6 552/1/6
f 552/1/6 545/1/6 553/1/6
f 547/1/6 548/1/6 554/1/6
f 546/1/6 547/1/6 554/1/6
f 554/1/6 548/1/6 555/1/6
f 556/1/6 557/1/6 559/1/6
f 558/1/6 559/1/6 561/1/6
f 559/1/6 557/1/6 562/1/6
f 561/1/6 559/1/6 562/1/6
f 560/1/6 561/1/6 564/1/6
f 564/1/6 561/1/6 565/1/6
f 565/1/6 561/1/6 566/1/6
f 563/3/6 564/3/6 567/3/6
f 564/1/6 565/1/6 568/1/6
f 567/3/6 564/3/6 568/3/6
f 568/1/6 565/1/6 569/1/6
f 569/1/6 570/1/6 571/1/6
f 568/1/6 569/1/6 571/1/6
f 571/1/6 570/1/6 572/1/6
f 572/1/6 573/1/6 574/1/6
f 574/1/6 573/1/6 575/1/6
f 575/1/6 573/1/6 576/1/6
f 576/1/6 573/1/6 577/1/6
f 575/1/6 576/1/6 578/1/6
f 578/1/6 576/1/6 579/1/6
