# MagicaVoxel @ Ephtracy

# group
o 

# material
mtllib levierRouge.mtl
usemtl palette

# normals
vn -1 0 0
vn 1 0 0
vn 0 0 1
vn 0 0 -1
vn 0 -1 0
vn 0 1 0

# texcoords
vt 0.119141 0.5
vt 0.123047 0.5
vt 0.138672 0.5

# verts
v -0.2 -0.5 0.1
v -0.2 -0.5 -0.1
v -0.2 -0.3 0.1
v -0.2 -0.3 -0.1
v -0.1 -0.7 0.4
v -0.1 -0.7 -0.4
v -0.1 -0.5 0.1
v -0.1 -0.5 -0.1
v -0.1 -0.3 0.1
v -0.1 -0.3 -0.1
v -0.1 -0.2 0.4
v -0.1 -0.2 -0.4
v 0 -0.7 0.5
v 0 -0.7 0.4
v 0 -0.7 -0.4
v 0 -0.7 -0.5
v 0 -0.2 0.5
v 0 -0.2 0.4
v 0 -0.2 0.1
v 0 -0.2 -0.4
v 0 -0.2 -0.5
v 0 -0.1 0.2
v 0 -0.1 0.1
v 0 0.1 0.5
v 0 0.1 0.4
v 0 0.2 0.3
v 0 0.2 0.2
v 0 0.5 0.5
v 0 0.5 0.3
v 0 0.6 0.5
v 0 0.6 0.3
v 0.2 -0.6 0.4
v 0.2 -0.6 0.2
v 0.2 -0.6 -0.1
v 0.2 -0.6 -0.4
v 0.2 -0.5 0
v 0.2 -0.5 -0.1
v 0.2 -0.3 0.3
v 0.2 -0.3 0.2
v 0.2 -0.2 0.4
v 0.2 -0.2 0.3
v 0.2 -0.2 0
v 0.2 -0.2 -0.4
v 0 -0.6 0.4
v 0 -0.6 0.2
v 0 -0.6 -0.1
v 0 -0.6 -0.4
v 0 -0.5 0
v 0 -0.5 -0.1
v 0 -0.3 0.3
v 0 -0.3 0.2
v 0 -0.2 0.4
v 0 -0.2 0.3
v 0 -0.2 0
v 0 -0.2 -0.4
v 0.2 -0.7 0.5
v 0.2 -0.7 0.4
v 0.2 -0.7 -0.4
v 0.2 -0.7 -0.5
v 0.2 -0.2 0.5
v 0.2 -0.2 0.4
v 0.2 -0.2 0.1
v 0.2 -0.2 -0.4
v 0.2 -0.2 -0.5
v 0.2 -0.1 0.2
v 0.2 -0.1 0.1
v 0.2 0.1 0.5
v 0.2 0.1 0.4
v 0.2 0.2 0.3
v 0.2 0.2 0.2
v 0.2 0.5 0.5
v 0.2 0.5 0.3
v 0.2 0.6 0.5
v 0.2 0.6 0.3
v 0.3 -0.7 0.4
v 0.3 -0.7 -0.4
v 0.3 -0.2 0.4
v 0.3 -0.2 -0.4
v 0 -0.7 0.5
v 0 -0.2 0.5
v 0 0.1 0.5
v 0 0.5 0.5
v 0 0.6 0.5
v 0.2 -0.7 0.5
v 0.2 -0.2 0.5
v 0.2 0.1 0.5
v 0.2 0.5 0.5
v 0.2 0.6 0.5
v -0.1 -0.7 0.4
v -0.1 -0.2 0.4
v 0 -0.7 0.4
v 0 -0.2 0.4
v 0 0.1 0.4
v 0.2 -0.7 0.4
v 0.2 -0.2 0.4
v 0.2 0.1 0.4
v 0.3 -0.7 0.4
v 0.3 -0.2 0.4
v 0 -0.3 0.3
v 0 -0.2 0.3
v 0.2 -0.3 0.3
v 0.2 -0.2 0.3
v 0 -0.6 0.2
v 0 -0.3 0.2
v 0.2 -0.6 0.2
v 0.2 -0.3 0.2
v -0.2 -0.5 0.1
v -0.2 -0.3 0.1
v -0.1 -0.5 0.1
v -0.1 -0.3 0.1
v 0 -0.6 -0.4
v 0 -0.2 -0.4
v 0.2 -0.6 -0.4
v 0.2 -0.2 -0.4
v 0 -0.6 0.4
v 0 -0.2 0.4
v 0.2 -0.6 0.4
v 0.2 -0.2 0.4
v 0 0.2 0.3
v 0 0.5 0.3
v 0 0.6 0.3
v 0.2 0.2 0.3
v 0.2 0.5 0.3
v 0.2 0.6 0.3
v 0 -0.1 0.2
v 0 0.2 0.2
v 0.2 -0.1 0.2
v 0.2 0.2 0.2
v 0 -0.2 0.1
v 0 -0.1 0.1
v 0.2 -0.2 0.1
v 0.2 -0.1 0.1
v 0 -0.5 0
v 0 -0.2 0
v 0.2 -0.5 0
v 0.2 -0.2 0
v -0.2 -0.5 -0.1
v -0.2 -0.3 -0.1
v -0.1 -0.5 -0.1
v -0.1 -0.3 -0.1
v 0 -0.6 -0.1
v 0 -0.5 -0.1
v 0.2 -0.6 -0.1
v 0.2 -0.5 -0.1
v -0.1 -0.7 -0.4
v -0.1 -0.2 -0.4
v 0 -0.7 -0.4
v 0 -0.2 -0.4
v 0.2 -0.7 -0.4
v 0.2 -0.2 -0.4
v 0.3 -0.7 -0.4
v 0.3 -0.2 -0.4
v 0 -0.7 -0.5
v 0 -0.2 -0.5
v 0.2 -0.7 -0.5
v 0.2 -0.2 -0.5
v 0 -0.7 0.5
v 0.2 -0.7 0.5
v -0.1 -0.7 0.4
v 0 -0.7 0.4
v 0.2 -0.7 0.4
v 0.3 -0.7 0.4
v -0.1 -0.7 -0.4
v 0 -0.7 -0.4
v 0.2 -0.7 -0.4
v 0.3 -0.7 -0.4
v 0 -0.7 -0.5
v 0.2 -0.7 -0.5
v -0.2 -0.5 0.1
v -0.1 -0.5 0.1
v -0.2 -0.5 -0.1
v -0.1 -0.5 -0.1
v 0 -0.3 0.3
v 0.2 -0.3 0.3
v 0 -0.3 0.2
v 0.2 -0.3 0.2
v 0 -0.2 0.4
v 0.2 -0.2 0.4
v 0 -0.2 0.3
v 0.2 -0.2 0.3
v 0 0.1 0.5
v 0.2 0.1 0.5
v 0 0.1 0.4
v 0.2 0.1 0.4
v 0 -0.6 0.4
v 0.2 -0.6 0.4
v 0 -0.6 0.2
v 0.2 -0.6 0.2
v 0 -0.6 -0.1
v 0.2 -0.6 -0.1
v 0 -0.6 -0.4
v 0.2 -0.6 -0.4
v 0 -0.5 0
v 0.2 -0.5 0
v 0 -0.5 -0.1
v 0.2 -0.5 -0.1
v -0.2 -0.3 0.1
v -0.1 -0.3 0.1
v -0.2 -0.3 -0.1
v -0.1 -0.3 -0.1
v 0 -0.2 0.5
v 0.2 -0.2 0.5
v -0.1 -0.2 0.4
v 0 -0.2 0.4
v 0.2 -0.2 0.4
v 0.3 -0.2 0.4
v 0 -0.2 0.1
v 0.2 -0.2 0.1
v 0 -0.2 0
v 0.2 -0.2 0
v -0.1 -0.2 -0.4
v 0 -0.2 -0.4
v 0.2 -0.2 -0.4
v 0.3 -0.2 -0.4
v 0 -0.2 -0.5
v 0.2 -0.2 -0.5
v 0 -0.1 0.2
v 0.2 -0.1 0.2
v 0 -0.1 0.1
v 0.2 -0.1 0.1
v 0 0.2 0.3
v 0.2 0.2 0.3
v 0 0.2 0.2
v 0.2 0.2 0.2
v 0 0.6 0.5
v 0.2 0.6 0.5
v 0 0.6 0.3
v 0.2 0.6 0.3

# faces
f 3/3/1 2/3/1 1/3/1
f 4/3/1 2/3/1 3/3/1
f 7/2/1 6/2/1 5/2/1
f 8/2/1 6/2/1 7/2/1
f 9/2/1 7/2/1 5/2/1
f 10/2/1 6/2/1 8/2/1
f 11/2/1 9/2/1 5/2/1
f 11/2/1 10/2/1 9/2/1
f 12/2/1 6/2/1 10/2/1
f 12/2/1 10/2/1 11/2/1
f 17/2/1 14/2/1 13/2/1
f 18/2/1 14/2/1 17/2/1
f 20/2/1 16/2/1 15/2/1
f 21/2/1 16/2/1 20/2/1
f 22/1/1 19/1/1 18/1/1
f 23/1/1 19/1/1 22/1/1
f 25/1/1 22/1/1 18/1/1
f 26/1/1 22/1/1 25/1/1
f 26/1/1 25/1/1 24/1/1
f 27/1/1 22/1/1 26/1/1
f 28/1/1 26/1/1 24/1/1
f 29/1/1 26/1/1 28/1/1
f 30/2/1 29/2/1 28/2/1
f 31/2/1 29/2/1 30/2/1
f 37/2/1 35/2/1 34/2/1
f 38/2/1 33/2/1 32/2/1
f 39/2/1 33/2/1 38/2/1
f 40/2/1 38/2/1 32/2/1
f 41/2/1 38/2/1 40/2/1
f 42/2/1 37/2/1 36/2/1
f 43/2/1 35/2/1 37/2/1
f 43/2/1 37/2/1 42/2/1
f 46/2/2 47/2/2 49/2/2
f 44/2/2 45/2/2 50/2/2
f 50/2/2 45/2/2 51/2/2
f 44/2/2 50/2/2 52/2/2
f 52/2/2 50/2/2 53/2/2
f 48/2/2 49/2/2 54/2/2
f 49/2/2 47/2/2 55/2/2
f 54/2/2 49/2/2 55/2/2
f 56/2/2 57/2/2 60/2/2
f 60/2/2 57/2/2 61/2/2
f 58/2/2 59/2/2 63/2/2
f 63/2/2 59/2/2 64/2/2
f 61/1/2 62/1/2 65/1/2
f 65/1/2 62/1/2 66/1/2
f 61/1/2 65/1/2 68/1/2
f 68/1/2 65/1/2 69/1/2
f 67/1/2 68/1/2 69/1/2
f 69/1/2 65/1/2 70/1/2
f 67/1/2 69/1/2 71/1/2
f 71/1/2 69/1/2 72/1/2
f 71/2/2 72/2/2 73/2/2
f 73/2/2 72/2/2 74/2/2
f 75/2/2 76/2/2 77/2/2
f 77/2/2 76/2/2 78/2/2
f 84/2/3 80/2/3 79/2/3
f 85/2/3 80/2/3 84/2/3
f 86/1/3 82/1/3 81/1/3
f 87/2/3 83/2/3 82/2/3
f 87/1/3 82/1/3 86/1/3
f 88/2/3 83/2/3 87/2/3
f 91/2/3 90/2/3 89/2/3
f 92/2/3 90/2/3 91/2/3
f 95/1/3 93/1/3 92/1/3
f 96/1/3 93/1/3 95/1/3
f 97/2/3 95/2/3 94/2/3
f 98/2/3 95/2/3 97/2/3
f 101/1/3 100/1/3 99/1/3
f 102/1/3 100/1/3 101/1/3
f 105/1/3 104/1/3 103/1/3
f 106/1/3 104/1/3 105/1/3
f 109/3/3 108/3/3 107/3/3
f 110/3/3 108/3/3 109/3/3
f 113/2/3 112/2/3 111/2/3
f 114/2/3 112/2/3 113/2/3
f 115/2/4 116/2/4 117/2/4
f 117/2/4 116/2/4 118/2/4
f 119/1/4 120/1/4 122/1/4
f 120/2/4 121/2/4 123/2/4
f 122/1/4 120/1/4 123/1/4
f 123/2/4 121/2/4 124/2/4
f 125/1/4 126/1/4 127/1/4
f 127/1/4 126/1/4 128/1/4
f 129/1/4 130/1/4 131/1/4
f 131/1/4 130/1/4 132/1/4
f 133/1/4 134/1/4 135/1/4
f 135/1/4 134/1/4 136/1/4
f 137/3/4 138/3/4 139/3/4
f 139/3/4 138/3/4 140/3/4
f 141/1/4 142/1/4 143/1/4
f 143/1/4 142/1/4 144/1/4
f 145/2/4 146/2/4 147/2/4
f 147/2/4 146/2/4 148/2/4
f 149/2/4 150/2/4 151/2/4
f 151/2/4 150/2/4 152/2/4
f 153/2/4 154/2/4 155/2/4
f 155/2/4 154/2/4 156/2/4
f 160/2/5 158/2/5 157/2/5
f 161/2/5 158/2/5 160/2/5
f 163/2/5 160/2/5 159/2/5
f 163/2/5 162/2/5 161/2/5
f 163/2/5 161/2/5 160/2/5
f 164/2/5 162/2/5 163/2/5
f 165/2/5 162/2/5 164/2/5
f 166/2/5 162/2/5 165/2/5
f 167/2/5 165/2/5 164/2/5
f 168/2/5 165/2/5 167/2/5
f 171/3/5 170/3/5 169/3/5
f 172/3/5 170/3/5 171/3/5
f 175/1/5 174/1/5 173/1/5
f 176/1/5 174/1/5 175/1/5
f 179/1/5 178/1/5 177/1/5
f 180/1/5 178/1/5 179/1/5
f 183/1/5 182/1/5 181/1/5
f 184/1/5 182/1/5 183/1/5
f 185/2/6 186/2/6 187/2/6
f 187/2/6 186/2/6 188/2/6
f 189/2/6 190/2/6 191/2/6
f 191/2/6 190/2/6 192/2/6
f 193/1/6 194/1/6 195/1/6
f 195/1/6 194/1/6 196/1/6
f 197/3/6 198/3/6 199/3/6
f 199/3/6 198/3/6 200/3/6
f 201/2/6 202/2/6 204/2/6
f 204/2/6 202/2/6 205/2/6
f 203/2/6 204/2/6 207/2/6
f 205/2/6 206/2/6 208/2/6
f 203/2/6 207/2/6 209/2/6
f 207/1/6 208/1/6 209/1/6
f 208/2/6 206/2/6 210/2/6
f 209/1/6 208/1/6 210/1/6
f 203/2/6 209/2/6 211/2/6
f 211/2/6 209/2/6 212/2/6
f 210/2/6 206/2/6 213/2/6
f 213/2/6 206/2/6 214/2/6
f 212/2/6 213/2/6 215/2/6
f 215/2/6 213/2/6 216/2/6
f 217/1/6 218/1/6 219/1/6
f 219/1/6 218/1/6 220/1/6
f 221/1/6 222/1/6 223/1/6
f 223/1/6 222/1/6 224/1/6
f 225/2/6 226/2/6 227/2/6
f 227/2/6 226/2/6 228/2/6
