# MagicaVoxel @ Ephtracy

# group
o 

# material
mtllib levierVert.mtl
usemtl palette

# normals
vn -1 0 0
vn 1 0 0
vn 0 0 1
vn 0 0 -1
vn 0 -1 0
vn 0 1 0

# texcoords
vt 0.0800781 0.5
vt 0.119141 0.5
vt 0.123047 0.5

# verts
v -0.2 -0.5 0.2
v -0.2 -0.5 5.96046e-008
v -0.2 -0.3 0.2
v -0.2 -0.3 5.96046e-008
v -0.1 -0.7 0.5
v -0.1 -0.7 -0.3
v -0.1 -0.5 0.2
v -0.1 -0.5 5.96046e-008
v -0.1 -0.3 0.2
v -0.1 -0.3 5.96046e-008
v -0.1 -0.2 0.5
v -0.1 -0.2 -0.3
v 0 -0.7 0.6
v 0 -0.7 0.5
v 0 -0.7 -0.3
v 0 -0.7 -0.4
v 0 -0.2 0.6
v 0 -0.2 0.5
v 0 -0.2 5.96046e-008
v 0 -0.2 -0.3
v 0 -0.2 -0.4
v 0 -0.1 5.96046e-008
v 0 -0.1 -0.1
v 0 0.1 -0.3
v 0 0.1 -0.4
v 0 0.2 -0.1
v 0 0.2 -0.2
v 0 0.5 -0.2
v 0 0.5 -0.4
v 0 0.6 -0.2
v 0 0.6 -0.4
v 0.2 -0.6 0.5
v 0.2 -0.6 0.2
v 0.2 -0.6 -0.1
v 0.2 -0.6 -0.3
v 0.2 -0.5 0.2
v 0.2 -0.5 0.1
v 0.2 -0.3 -0.1
v 0.2 -0.3 -0.2
v 0.2 -0.2 0.5
v 0.2 -0.2 0.1
v 0.2 -0.2 -0.2
v 0.2 -0.2 -0.3
v 0 -0.6 0.5
v 0 -0.6 0.2
v 0 -0.6 -0.1
v 0 -0.6 -0.3
v 0 -0.5 0.2
v 0 -0.5 0.1
v 0 -0.3 -0.1
v 0 -0.3 -0.2
v 0 -0.2 0.5
v 0 -0.2 0.1
v 0 -0.2 -0.2
v 0 -0.2 -0.3
v 0.2 -0.7 0.6
v 0.2 -0.7 0.5
v 0.2 -0.7 -0.3
v 0.2 -0.7 -0.4
v 0.2 -0.2 0.6
v 0.2 -0.2 0.5
v 0.2 -0.2 5.96046e-008
v 0.2 -0.2 -0.3
v 0.2 -0.2 -0.4
v 0.2 -0.1 5.96046e-008
v 0.2 -0.1 -0.1
v 0.2 0.1 -0.3
v 0.2 0.1 -0.4
v 0.2 0.2 -0.1
v 0.2 0.2 -0.2
v 0.2 0.5 -0.2
v 0.2 0.5 -0.4
v 0.2 0.6 -0.2
v 0.2 0.6 -0.4
v 0.3 -0.7 0.5
v 0.3 -0.7 -0.3
v 0.3 -0.2 0.5
v 0.3 -0.2 -0.3
v 0 -0.7 0.6
v 0 -0.2 0.6
v 0.2 -0.7 0.6
v 0.2 -0.2 0.6
v -0.1 -0.7 0.5
v -0.1 -0.2 0.5
v 0 -0.7 0.5
v 0 -0.2 0.5
v 0.2 -0.7 0.5
v 0.2 -0.2 0.5
v 0.3 -0.7 0.5
v 0.3 -0.2 0.5
v -0.2 -0.5 0.2
v -0.2 -0.3 0.2
v -0.1 -0.5 0.2
v -0.1 -0.3 0.2
v 0 -0.6 0.2
v 0 -0.5 0.2
v 0.2 -0.6 0.2
v 0.2 -0.5 0.2
v 0 -0.5 0.1
v 0 -0.2 0.1
v 0.2 -0.5 0.1
v 0.2 -0.2 0.1
v 0 -0.2 5.96046e-008
v 0 -0.1 5.96046e-008
v 0.2 -0.2 5.96046e-008
v 0.2 -0.1 5.96046e-008
v 0 -0.1 -0.1
v 0 0.2 -0.1
v 0.2 -0.1 -0.1
v 0.2 0.2 -0.1
v 0 0.2 -0.2
v 0 0.5 -0.2
v 0 0.6 -0.2
v 0.2 0.2 -0.2
v 0.2 0.5 -0.2
v 0.2 0.6 -0.2
v 0 -0.6 -0.3
v 0 -0.2 -0.3
v 0.2 -0.6 -0.3
v 0.2 -0.2 -0.3
v 0 -0.6 0.5
v 0 -0.2 0.5
v 0.2 -0.6 0.5
v 0.2 -0.2 0.5
v -0.2 -0.5 5.96046e-008
v -0.2 -0.3 5.96046e-008
v -0.1 -0.5 5.96046e-008
v -0.1 -0.3 5.96046e-008
v 0 -0.6 -0.1
v 0 -0.3 -0.1
v 0.2 -0.6 -0.1
v 0.2 -0.3 -0.1
v 0 -0.3 -0.2
v 0 -0.2 -0.2
v 0.2 -0.3 -0.2
v 0.2 -0.2 -0.2
v -0.1 -0.7 -0.3
v -0.1 -0.2 -0.3
v 0 -0.7 -0.3
v 0 -0.2 -0.3
v 0 0.1 -0.3
v 0.2 -0.7 -0.3
v 0.2 -0.2 -0.3
v 0.2 0.1 -0.3
v 0.3 -0.7 -0.3
v 0.3 -0.2 -0.3
v 0 -0.7 -0.4
v 0 -0.2 -0.4
v 0 0.1 -0.4
v 0 0.5 -0.4
v 0 0.6 -0.4
v 0.2 -0.7 -0.4
v 0.2 -0.2 -0.4
v 0.2 0.1 -0.4
v 0.2 0.5 -0.4
v 0.2 0.6 -0.4
v 0 -0.7 0.6
v 0.2 -0.7 0.6
v -0.1 -0.7 0.5
v 0 -0.7 0.5
v 0.2 -0.7 0.5
v 0.3 -0.7 0.5
v -0.1 -0.7 -0.3
v 0 -0.7 -0.3
v 0.2 -0.7 -0.3
v 0.3 -0.7 -0.3
v 0 -0.7 -0.4
v 0.2 -0.7 -0.4
v -0.2 -0.5 0.2
v -0.1 -0.5 0.2
v -0.2 -0.5 5.96046e-008
v -0.1 -0.5 5.96046e-008
v 0 -0.3 -0.1
v 0.2 -0.3 -0.1
v 0 -0.3 -0.2
v 0.2 -0.3 -0.2
v 0 -0.2 -0.2
v 0.2 -0.2 -0.2
v 0 -0.2 -0.3
v 0.2 -0.2 -0.3
v 0 0.1 -0.3
v 0.2 0.1 -0.3
v 0 0.1 -0.4
v 0.2 0.1 -0.4
v 0 -0.6 0.5
v 0.2 -0.6 0.5
v 0 -0.6 0.2
v 0.2 -0.6 0.2
v 0 -0.6 -0.1
v 0.2 -0.6 -0.1
v 0 -0.6 -0.3
v 0.2 -0.6 -0.3
v 0 -0.5 0.2
v 0.2 -0.5 0.2
v 0 -0.5 0.1
v 0.2 -0.5 0.1
v -0.2 -0.3 0.2
v -0.1 -0.3 0.2
v -0.2 -0.3 5.96046e-008
v -0.1 -0.3 5.96046e-008
v 0 -0.2 0.6
v 0.2 -0.2 0.6
v -0.1 -0.2 0.5
v 0 -0.2 0.5
v 0.2 -0.2 0.5
v 0.3 -0.2 0.5
v 0 -0.2 0.1
v 0.2 -0.2 0.1
v 0 -0.2 5.96046e-008
v 0.2 -0.2 5.96046e-008
v -0.1 -0.2 -0.3
v 0 -0.2 -0.3
v 0.2 -0.2 -0.3
v 0.3 -0.2 -0.3
v 0 -0.2 -0.4
v 0.2 -0.2 -0.4
v 0 -0.1 5.96046e-008
v 0.2 -0.1 5.96046e-008
v 0 -0.1 -0.1
v 0.2 -0.1 -0.1
v 0 0.2 -0.1
v 0.2 0.2 -0.1
v 0 0.2 -0.2
v 0.2 0.2 -0.2
v 0 0.6 -0.2
v 0.2 0.6 -0.2
v 0 0.6 -0.4
v 0.2 0.6 -0.4

# faces
f 3/1/1 2/1/1 1/1/1
f 4/1/1 2/1/1 3/1/1
f 7/3/1 6/3/1 5/3/1
f 8/3/1 6/3/1 7/3/1
f 9/3/1 7/3/1 5/3/1
f 10/3/1 6/3/1 8/3/1
f 11/3/1 9/3/1 5/3/1
f 11/3/1 10/3/1 9/3/1
f 12/3/1 6/3/1 10/3/1
f 12/3/1 10/3/1 11/3/1
f 17/3/1 14/3/1 13/3/1
f 18/3/1 14/3/1 17/3/1
f 20/3/1 16/3/1 15/3/1
f 21/3/1 16/3/1 20/3/1
f 22/2/1 20/2/1 19/2/1
f 23/2/1 20/2/1 22/2/1
f 24/2/1 20/2/1 23/2/1
f 26/2/1 24/2/1 23/2/1
f 26/2/1 25/2/1 24/2/1
f 27/2/1 25/2/1 26/2/1
f 28/2/1 25/2/1 27/2/1
f 29/2/1 25/2/1 28/2/1
f 30/3/1 29/3/1 28/3/1
f 31/3/1 29/3/1 30/3/1
f 36/3/1 33/3/1 32/3/1
f 38/3/1 35/3/1 34/3/1
f 39/3/1 35/3/1 38/3/1
f 40/3/1 37/3/1 36/3/1
f 40/3/1 36/3/1 32/3/1
f 41/3/1 37/3/1 40/3/1
f 42/3/1 35/3/1 39/3/1
f 43/3/1 35/3/1 42/3/1
f 44/3/2 45/3/2 48/3/2
f 46/3/2 47/3/2 50/3/2
f 50/3/2 47/3/2 51/3/2
f 48/3/2 49/3/2 52/3/2
f 44/3/2 48/3/2 52/3/2
f 52/3/2 49/3/2 53/3/2
f 51/3/2 47/3/2 54/3/2
f 54/3/2 47/3/2 55/3/2
f 56/3/2 57/3/2 60/3/2
f 60/3/2 57/3/2 61/3/2
f 58/3/2 59/3/2 63/3/2
f 63/3/2 59/3/2 64/3/2
f 62/2/2 63/2/2 65/2/2
f 65/2/2 63/2/2 66/2/2
f 66/2/2 63/2/2 67/2/2
f 66/2/2 67/2/2 69/2/2
f 67/2/2 68/2/2 69/2/2
f 69/2/2 68/2/2 70/2/2
f 70/2/2 68/2/2 71/2/2
f 71/2/2 68/2/2 72/2/2
f 71/3/2 72/3/2 73/3/2
f 73/3/2 72/3/2 74/3/2
f 75/3/2 76/3/2 77/3/2
f 77/3/2 76/3/2 78/3/2
f 81/3/3 80/3/3 79/3/3
f 82/3/3 80/3/3 81/3/3
f 85/3/3 84/3/3 83/3/3
f 86/3/3 84/3/3 85/3/3
f 89/3/3 88/3/3 87/3/3
f 90/3/3 88/3/3 89/3/3
f 93/1/3 92/1/3 91/1/3
f 94/1/3 92/1/3 93/1/3
f 97/2/3 96/2/3 95/2/3
f 98/2/3 96/2/3 97/2/3
f 101/2/3 100/2/3 99/2/3
f 102/2/3 100/2/3 101/2/3
f 105/2/3 104/2/3 103/2/3
f 106/2/3 104/2/3 105/2/3
f 109/2/3 108/2/3 107/2/3
f 110/2/3 108/2/3 109/2/3
f 114/2/3 112/2/3 111/2/3
f 115/3/3 113/3/3 112/3/3
f 115/2/3 112/2/3 114/2/3
f 116/3/3 113/3/3 115/3/3
f 119/3/3 118/3/3 117/3/3
f 120/3/3 118/3/3 119/3/3
f 121/3/4 122/3/4 123/3/4
f 123/3/4 122/3/4 124/3/4
f 125/1/4 126/1/4 127/1/4
f 127/1/4 126/1/4 128/1/4
f 129/2/4 130/2/4 131/2/4
f 131/2/4 130/2/4 132/2/4
f 133/2/4 134/2/4 135/2/4
f 135/2/4 134/2/4 136/2/4
f 137/3/4 138/3/4 139/3/4
f 139/3/4 138/3/4 140/3/4
f 140/2/4 141/2/4 143/2/4
f 143/2/4 141/2/4 144/2/4
f 142/3/4 143/3/4 145/3/4
f 145/3/4 143/3/4 146/3/4
f 147/3/4 148/3/4 152/3/4
f 152/3/4 148/3/4 153/3/4
f 149/2/4 150/2/4 154/2/4
f 150/3/4 151/3/4 155/3/4
f 154/2/4 150/2/4 155/2/4
f 155/3/4 151/3/4 156/3/4
f 160/3/5 158/3/5 157/3/5
f 161/3/5 158/3/5 160/3/5
f 163/3/5 160/3/5 159/3/5
f 163/3/5 162/3/5 161/3/5
f 163/3/5 161/3/5 160/3/5
f 164/3/5 162/3/5 163/3/5
f 165/3/5 162/3/5 164/3/5
f 166/3/5 162/3/5 165/3/5
f 167/3/5 165/3/5 164/3/5
f 168/3/5 165/3/5 167/3/5
f 171/1/5 170/1/5 169/1/5
f 172/1/5 170/1/5 171/1/5
f 175/2/5 174/2/5 173/2/5
f 176/2/5 174/2/5 175/2/5
f 179/2/5 178/2/5 177/2/5
f 180/2/5 178/2/5 179/2/5
f 183/2/5 182/2/5 181/2/5
f 184/2/5 182/2/5 183/2/5
f 185/3/6 186/3/6 187/3/6
f 187/3/6 186/3/6 188/3/6
f 189/3/6 190/3/6 191/3/6
f 191/3/6 190/3/6 192/3/6
f 193/2/6 194/2/6 195/2/6
f 195/2/6 194/2/6 196/2/6
f 197/1/6 198/1/6 199/1/6
f 199/1/6 198/1/6 200/1/6
f 201/3/6 202/3/6 204/3/6
f 204/3/6 202/3/6 205/3/6
f 203/3/6 204/3/6 207/3/6
f 205/3/6 206/3/6 208/3/6
f 203/3/6 207/3/6 209/3/6
f 207/2/6 208/2/6 209/2/6
f 208/3/6 206/3/6 210/3/6
f 209/2/6 208/2/6 210/2/6
f 203/3/6 209/3/6 211/3/6
f 211/3/6 209/3/6 212/3/6
f 210/3/6 206/3/6 213/3/6
f 213/3/6 206/3/6 214/3/6
f 212/3/6 213/3/6 215/3/6
f 215/3/6 213/3/6 216/3/6
f 217/2/6 218/2/6 219/2/6
f 219/2/6 218/2/6 220/2/6
f 221/2/6 222/2/6 223/2/6
f 223/2/6 222/2/6 224/2/6
f 225/3/6 226/3/6 227/3/6
f 227/3/6 226/3/6 228/3/6
